<svg width="512" height="512" xmlns="http://www.w3.org/2000/svg">

 <g>
  <title>background</title>
  <rect fill="none" id="canvas_background" height="402" width="582" y="-1" x="-1"/>
 </g>
 <g>
  <title>Layer 1</title>
  <path id="XMLID_13814_" d="m190.101,250.133l26.359,-26.359l-83.811,-83.811c-1.82,-1.82 -1.82,-4.771 0,-6.59c1.82,-1.819 4.77,-1.819 6.59,0l83.811,83.811l26.359,-26.359l-89.495,-89.495l-75.625,-19.19l16.393,78.575l89.419,89.418z"/>
  <rect y="300.187" x="279.477" width="37.278" transform="matrix(0.7071,-0.7071,0.7071,0.7071,-147.2936,307.9705) " id="XMLID_13815_" height="63.204"/>
  <path id="XMLID_13816_" d="m90.43,389.344c-4.709,4.709 -7.394,10.863 -7.558,17.326c-0.163,6.375 2.153,12.291 6.522,16.66c4.211,4.211 9.908,6.529 16.042,6.529c6.692,0 13.065,-2.686 17.943,-7.566l22.029,-22.029l-32.949,-32.949l-22.029,22.029z"/>
  <path id="XMLID_13817_" d="m429.129,406.67c-0.165,-6.463 -2.85,-12.617 -7.559,-17.324l-22.029,-22.031l-32.949,32.949l22.029,22.029c4.879,4.881 11.251,7.566 17.942,7.566c6.135,0 11.832,-2.318 16.043,-6.529c4.369,-4.369 6.685,-10.285 6.523,-16.66z"/>
  <rect y="361.29" x="118.815" width="46.597" transform="matrix(-0.7071,-0.7071,0.7071,-0.7071,-19.4581,733.1609) " id="XMLID_13818_" height="18.641"/>
  <rect y="341.523" x="138.585" width="46.596" transform="matrix(-0.7071,-0.7071,0.7071,-0.7071,28.2824,713.3979) " id="XMLID_13819_" height="18.638"/>
  <path fill="#000000" id="XMLID_13820_" d="m427.711,82.14l-75.627,19.189l-92.79,92.79l-65.898,65.898l-47.988,47.988l26.36,26.359l200.994,-200.993c1.818,-1.819 4.771,-1.819 6.589,0c1.82,1.82 1.82,4.771 0,6.59l-200.993,200.994l26.36,26.359l206.601,-206.599l16.392,-78.575z"/>
  <rect y="341.521" x="326.819" width="46.599" transform="matrix(0.7071,-0.7071,0.7071,0.7071,-145.5347,350.3372) " id="XMLID_13821_" height="18.64"/>
  <rect y="361.29" x="346.589" width="46.597" transform="matrix(0.7071,-0.7071,0.7071,0.7071,-153.7236,370.099) " id="XMLID_13822_" height="18.641"/>
  <rect y="267.237" x="312.427" width="37.278" transform="matrix(-0.7071,0.7071,-0.7071,-0.7071,776.4762,276.0517) " id="XMLID_13823_" height="63.205"/>
 </g>
</svg>